<?xml version="1.0" encoding="UTF-8" standalone="no"?>
<!-- Created with Inkscape (http://www.inkscape.org/) -->
<svg
   xmlns:dc="http://purl.org/dc/elements/1.1/"
   xmlns:cc="http://web.resource.org/cc/"
   xmlns:rdf="http://www.w3.org/1999/02/22-rdf-syntax-ns#"
   xmlns:svg="http://www.w3.org/2000/svg"
   xmlns="http://www.w3.org/2000/svg"
   xmlns:sodipodi="http://sodipodi.sourceforge.net/DTD/sodipodi-0.dtd"
   xmlns:inkscape="http://www.inkscape.org/namespaces/inkscape"
   width="650.729"
   height="771.1604"
   id="svg2"
   inkscape:label="Pozadí"
   sodipodi:version="0.32"
   inkscape:version="0.44"
   sodipodi:docbase="C:\Documents and Settings\Zuzik\Plocha\13.Svatky a vyroci"
   sodipodi:docname="vanoce_1.svg"
   version="1.0">
  <defs
     id="defs3" />
  <sodipodi:namedview
     id="base"
     pagecolor="#ffffff"
     bordercolor="#666666"
     borderopacity="1.0"
     inkscape:pageopacity="0.0"
     inkscape:pageshadow="2"
     inkscape:zoom="0.49032549"
     inkscape:cx="426.8739"
     inkscape:cy="495.58917"
     inkscape:document-units="px"
     inkscape:current-layer="layer1"
     inkscape:window-width="1024"
     inkscape:window-height="712"
     inkscape:window-x="-4"
     inkscape:window-y="-4" />
  <metadata
     id="metadata6">
    <rdf:RDF>
      <cc:Work
         rdf:about="">
        <dc:format>image/svg+xml</dc:format>
        <dc:type
           rdf:resource="http://purl.org/dc/dcmitype/StillImage" />
        <dc:title>vanoce</dc:title>
        <dc:date>7.11.2006</dc:date>
        <dc:creator>
          <cc:Agent>
            <dc:title>Petra Thurlova</dc:title>
          </cc:Agent>
        </dc:creator>
        <dc:publisher>
          <cc:Agent>
            <dc:title>ZS a MS Machovo namesti</dc:title>
          </cc:Agent>
        </dc:publisher>
        <dc:language>cz</dc:language>
        <dc:subject>
          <rdf:Bag>
            <rdf:li>vanoce</rdf:li>
          </rdf:Bag>
        </dc:subject>
        <cc:license
           rdf:resource="http://web.resource.org/cc/PublicDomain" />
      </cc:Work>
      <cc:License
         rdf:about="http://web.resource.org/cc/PublicDomain">
        <cc:permits
           rdf:resource="http://web.resource.org/cc/Reproduction" />
        <cc:permits
           rdf:resource="http://web.resource.org/cc/Distribution" />
        <cc:permits
           rdf:resource="http://web.resource.org/cc/DerivativeWorks" />
      </cc:License>
    </rdf:RDF>
  </metadata>
  <g
     inkscape:label="Vrstva 1"
     inkscape:groupmode="layer"
     id="layer1"
     transform="translate(-45.52028,-154.5838)">
    <g
       id="g2115"
       inkscape:export-filename="/media/KINGSTON/inkscape/8.b/Petra Thurlova/svg 3/Prace svg/svatky a viroci/vanoce.png"
       inkscape:export-xdpi="90"
       inkscape:export-ydpi="90">
      <path
         sodipodi:nodetypes="cczzc"
         id="rect2800"
         d="M 333.09796,703.88538 L 402.05531,703.88538 C 402.05531,703.88538 424.41581,809.13851 402.05531,831.98711 C 378.69759,855.8547 352.37676,851.77577 333.09796,831.98711 C 314.81156,813.21709 333.09796,703.88538 333.09796,703.88538 z "
         style="fill:#803300;fill-opacity:1;stroke:#301e58;stroke-width:1.18435073;stroke-miterlimit:4;stroke-opacity:1" />
      <g
         transform="translate(14.27623,173.3542)"
         id="g2766">
        <path
           style="fill:#51ad74;fill-opacity:1;stroke:#301e58;stroke-width:1.586959;stroke-miterlimit:4;stroke-opacity:1"
           d="M 212.50692,431.14899 C 225.61368,420.5462 330.61696,342.50959 357.19053,342.41426 C 383.7641,342.31892 491.41614,419.59258 504.88295,430.10004 C 518.34977,440.60751 613.19672,521.33353 600.08994,531.93632 C 586.98317,542.53913 387.24914,546.66213 360.67557,546.75747 C 334.102,546.8528 134.25179,544.16339 120.78498,533.65592 C 107.3182,523.14846 199.40017,441.7518 212.50692,431.14899 z "
           id="path1871" />
        <path
           id="path1874"
           d="M 214.13756,326.58949 C 227.02636,317.67238 330.28336,252.0423 356.41499,251.96214 C 382.54662,251.88196 488.40834,316.87037 501.65119,325.70731 C 514.89406,334.54426 608.16362,402.43617 595.27483,411.35329 C 582.38603,420.27043 385.97371,423.73793 359.84207,423.81812 C 333.71043,423.89829 137.18387,421.63646 123.94102,412.7995 C 110.6982,403.96256 201.24879,335.50663 214.13756,326.58949 z "
           style="fill:#51ad74;fill-opacity:1;stroke:#301e58;stroke-width:1.44319916;stroke-miterlimit:4;stroke-opacity:1" />
        <path
           style="fill:#51ad74;fill-opacity:1;stroke:#301e58;stroke-width:1.33122885;stroke-miterlimit:4;stroke-opacity:1"
           d="M 234.61171,223.17243 C 246.11677,214.67278 338.28817,152.11532 361.61432,152.0389 C 384.94048,151.96247 479.43694,213.90832 491.25804,222.33154 C 503.07917,230.75478 586.33536,295.46819 574.83031,303.96785 C 563.32524,312.4675 387.99964,315.77267 364.67347,315.8491 C 341.34732,315.92552 165.91972,313.76959 154.09862,305.34635 C 142.27754,296.92311 223.10667,231.67209 234.61171,223.17243 z "
           id="path1876" />
        <path
           id="path1878"
           d="M 241.8873,130.67764 C 252.67462,123.22973 339.09597,68.413101 360.96693,68.346141 C 382.8379,68.279171 471.43925,122.55987 482.5229,129.9408 C 493.60657,137.32176 571.66888,194.02756 560.88156,201.47548 C 550.09423,208.92339 385.70621,211.81958 363.83523,211.88655 C 341.96427,211.95351 177.48062,210.06436 166.39697,202.6834 C 155.31334,195.30245 231.1,138.12556 241.8873,130.67764 z "
           style="fill:#51ad74;fill-opacity:1;stroke:#301e58;stroke-width:1.20665121;stroke-miterlimit:4;stroke-opacity:1" />
      </g>
      <path
         transform="translate(566.9704,354.8663)"
         d="M -316.11655 301.8403 A 22.434078 20.394615 0 1 1  -360.98471,301.8403 A 22.434078 20.394615 0 1 1  -316.11655 301.8403 z"
         sodipodi:ry="20.394615"
         sodipodi:rx="22.434078"
         sodipodi:cy="301.8403"
         sodipodi:cx="-338.55063"
         id="path2774"
         style="fill:purple;fill-opacity:1;stroke:#301e58;stroke-width:0.80000001;stroke-miterlimit:4;stroke-dasharray:none;stroke-opacity:1"
         sodipodi:type="arc" />
      <path
         transform="translate(636.3119,150.9202)"
         sodipodi:type="arc"
         style="fill:#f60;fill-opacity:1;stroke:#301e58;stroke-width:0.80000001;stroke-miterlimit:4;stroke-dasharray:none;stroke-opacity:1"
         id="path2778"
         sodipodi:cx="-338.55063"
         sodipodi:cy="301.8403"
         sodipodi:rx="22.434078"
         sodipodi:ry="20.394615"
         d="M -316.11655 301.8403 A 22.434078 20.394615 0 1 1  -360.98471,301.8403 A 22.434078 20.394615 0 1 1  -316.11655 301.8403 z" />
      <path
         transform="translate(836.1793,238.617)"
         d="M -316.11655 301.8403 A 22.434078 20.394615 0 1 1  -360.98471,301.8403 A 22.434078 20.394615 0 1 1  -316.11655 301.8403 z"
         sodipodi:ry="20.394615"
         sodipodi:rx="22.434078"
         sodipodi:cy="301.8403"
         sodipodi:cx="-338.55063"
         id="path2780"
         style="fill:#ff2a2a;fill-opacity:1;stroke:#301e58;stroke-width:0.80000001;stroke-miterlimit:4;stroke-dasharray:none;stroke-opacity:1"
         sodipodi:type="arc" />
      <path
         transform="translate(832.1003,140.7228)"
         sodipodi:type="arc"
         style="fill:purple;fill-opacity:1;stroke:#301e58;stroke-width:0.80000001;stroke-miterlimit:4;stroke-dasharray:none;stroke-opacity:1"
         id="path2782"
         sodipodi:cx="-338.55063"
         sodipodi:cy="301.8403"
         sodipodi:rx="22.434078"
         sodipodi:ry="20.394615"
         d="M -316.11655 301.8403 A 22.434078 20.394615 0 1 1  -360.98471,301.8403 A 22.434078 20.394615 0 1 1  -316.11655 301.8403 z" />
      <path
         transform="translate(832.1003,48.9471)"
         sodipodi:type="arc"
         style="fill:red;fill-opacity:1;stroke:#301e58;stroke-width:0.80000001;stroke-miterlimit:4;stroke-dasharray:none;stroke-opacity:1"
         id="path2784"
         sodipodi:cx="-338.55063"
         sodipodi:cy="301.8403"
         sodipodi:rx="22.434078"
         sodipodi:ry="20.394615"
         d="M -316.11655 301.8403 A 22.434078 20.394615 0 1 1  -360.98471,301.8403 A 22.434078 20.394615 0 1 1  -316.11655 301.8403 z" />
      <path
         transform="translate(750.5219,365.0636)"
         d="M -316.11655 301.8403 A 22.434078 20.394615 0 1 1  -360.98471,301.8403 A 22.434078 20.394615 0 1 1  -316.11655 301.8403 z"
         sodipodi:ry="20.394615"
         sodipodi:rx="22.434078"
         sodipodi:cy="301.8403"
         sodipodi:cx="-338.55063"
         id="path2786"
         style="fill:#f60;fill-opacity:1;stroke:#301e58;stroke-width:0.80000001;stroke-miterlimit:4;stroke-dasharray:none;stroke-opacity:1"
         sodipodi:type="arc" />
      <path
         transform="translate(542.4968,259.0116)"
         sodipodi:type="arc"
         style="fill:yellow;fill-opacity:1;stroke:#301e58;stroke-width:0.80000001;stroke-miterlimit:4;stroke-dasharray:none;stroke-opacity:1"
         id="path2788"
         sodipodi:cx="-338.55063"
         sodipodi:cy="301.8403"
         sodipodi:rx="22.434078"
         sodipodi:ry="20.394615"
         d="M -316.11655 301.8403 A 22.434078 20.394615 0 1 1  -360.98471,301.8403 A 22.434078 20.394615 0 1 1  -316.11655 301.8403 z" />
      <path
         d="M -316.11655 301.8403 A 22.434078 20.394615 0 1 1  -360.98471,301.8403 A 22.434078 20.394615 0 1 1  -316.11655 301.8403 z"
         sodipodi:ry="20.394615"
         sodipodi:rx="22.434078"
         sodipodi:cy="301.8403"
         sodipodi:cx="-338.55063"
         id="path2790"
         style="fill:yellow;fill-opacity:1;stroke:#301e58;stroke-width:0.80000001;stroke-miterlimit:4;stroke-dasharray:none;stroke-opacity:1"
         sodipodi:type="arc"
         transform="translate(724.0089,10.1974)" />
      <path
         d="M -316.11655 301.8403 A 22.434078 20.394615 0 1 1  -360.98471,301.8403 A 22.434078 20.394615 0 1 1  -316.11655 301.8403 z"
         sodipodi:ry="20.394615"
         sodipodi:rx="22.434078"
         sodipodi:cy="301.8403"
         sodipodi:cx="-338.55063"
         id="path2792"
         style="fill:lime;fill-opacity:1;stroke:#301e58;stroke-width:0.80000001;stroke-miterlimit:4;stroke-dasharray:none;stroke-opacity:1"
         sodipodi:type="arc"
         transform="translate(624.0752,42.8286)" />
      <path
         transform="translate(644.4699,248.8143)"
         sodipodi:type="arc"
         style="fill:lime;fill-opacity:1;stroke:#301e58;stroke-width:0.80000001;stroke-miterlimit:4;stroke-dasharray:none;stroke-opacity:1"
         id="path2794"
         sodipodi:cx="-338.55063"
         sodipodi:cy="301.8403"
         sodipodi:rx="22.434078"
         sodipodi:ry="20.394615"
         d="M -316.11655 301.8403 A 22.434078 20.394615 0 1 1  -360.98471,301.8403 A 22.434078 20.394615 0 1 1  -316.11655 301.8403 z" />
      <path
         d="M -316.11655 301.8403 A 22.434078 20.394615 0 1 1  -360.98471,301.8403 A 22.434078 20.394615 0 1 1  -316.11655 301.8403 z"
         sodipodi:ry="20.394615"
         sodipodi:rx="22.434078"
         sodipodi:cy="301.8403"
         sodipodi:cx="-338.55063"
         id="path2796"
         style="fill:blue;fill-opacity:1;stroke:#301e58;stroke-width:0.80000001;stroke-miterlimit:4;stroke-dasharray:none;stroke-opacity:1"
         sodipodi:type="arc"
         transform="translate(740.3247,130.5253)" />
      <path
         transform="translate(899.4027,377.3003)"
         sodipodi:type="arc"
         style="fill:blue;fill-opacity:1;stroke:#301e58;stroke-width:0.80000001;stroke-miterlimit:4;stroke-dasharray:none;stroke-opacity:1"
         id="path2798"
         sodipodi:cx="-338.55063"
         sodipodi:cy="301.8403"
         sodipodi:rx="22.434078"
         sodipodi:ry="20.394615"
         d="M -316.11655 301.8403 A 22.434078 20.394615 0 1 1  -360.98471,301.8403 A 22.434078 20.394615 0 1 1  -316.11655 301.8403 z" />
      <path
         sodipodi:type="arc"
         style="fill:#9c8440;fill-opacity:1;stroke:#301e58;stroke-width:0.80000001;stroke-miterlimit:4;stroke-dasharray:none;stroke-opacity:1"
         id="path1921"
         sodipodi:cx="-338.55063"
         sodipodi:cy="301.8403"
         sodipodi:rx="22.434078"
         sodipodi:ry="20.394615"
         d="M -316.11655 301.8403 A 22.434078 20.394615 0 1 1  -360.98471,301.8403 A 22.434078 20.394615 0 1 1  -316.11655 301.8403 z"
         transform="translate(744.4035,252.8932)" />
      <path
         transform="translate(662.825,346.7084)"
         d="M -316.11655 301.8403 A 22.434078 20.394615 0 1 1  -360.98471,301.8403 A 22.434078 20.394615 0 1 1  -316.11655 301.8403 z"
         sodipodi:ry="20.394615"
         sodipodi:rx="22.434078"
         sodipodi:cy="301.8403"
         sodipodi:cx="-338.55063"
         id="path1923"
         style="fill:#fc7c7c;fill-opacity:1;stroke:#301e58;stroke-width:0.80000001;stroke-miterlimit:4;stroke-dasharray:none;stroke-opacity:1"
         sodipodi:type="arc" />
      <g
         transform="translate(1009.534,418.0896)"
         id="g3725">
        <g
           id="g2820"
           transform="translate(8.838833,20.15254)">
          <rect
             y="354.8663"
             x="-450.72101"
             height="118.28877"
             width="128.48608"
             id="rect1925"
             style="fill:#9c8440;fill-opacity:1;stroke:none;stroke-width:0.80000001;stroke-miterlimit:4;stroke-dasharray:none;stroke-opacity:0.12972975" />
          <rect
             transform="matrix(-5.065645e-3,0.999987,-1,-7.962646e-5,0,0)"
             y="320.0881"
             x="401.8165"
             height="128.52126"
             width="20.730982"
             id="rect1927"
             style="fill:fuchsia;fill-opacity:1;stroke:none;stroke-width:0.73070163;stroke-miterlimit:4;stroke-dasharray:none;stroke-opacity:0.12972975" />
          <rect
             style="fill:fuchsia;fill-opacity:1;stroke:none;stroke-width:0.65893984;stroke-miterlimit:4;stroke-dasharray:none;stroke-opacity:0.12972975"
             id="rect1929"
             width="20.535677"
             height="118.5117"
             x="-397.80499"
             y="354.7139" />
        </g>
        <g
           id="g2830"
           transform="matrix(0.89429,0,0,0.86967,86.58063,40.12368)">
          <path
             sodipodi:nodetypes="csssc"
             id="path2825"
             d="M -454.79776,362.23806 C -454.79776,366.04371 -470.49404,388.91821 -490.30293,388.91821 C -510.11182,388.91821 -528.56231,366.20839 -528.56231,362.40274 C -528.56231,358.59709 -511.07867,333.0664 -491.26978,333.0664 C -471.46089,333.0664 -454.79776,358.43241 -454.79776,362.23806 z "
             style="fill:fuchsia;fill-opacity:1;stroke:none;stroke-width:0.80000001;stroke-miterlimit:4;stroke-opacity:0.12972975"
             transform="matrix(0.76293,-0.646481,0.646481,0.76293,-351.0851,-232.5912)" />
          <path
             transform="matrix(0.527556,-0.588945,1.145378,0.738043,-691.6818,-244.5355)"
             d="M -480.47903 410.13245 A 33.410797 11.712358 0 1 1  -547.30063,410.13245 A 33.410797 11.712358 0 1 1  -480.47903 410.13245 z"
             sodipodi:ry="11.712358"
             sodipodi:rx="33.410797"
             sodipodi:cy="410.13245"
             sodipodi:cx="-513.88983"
             id="path2828"
             style="fill:white;fill-opacity:1;stroke:none;stroke-width:0.80000001;stroke-miterlimit:4;stroke-dasharray:none;stroke-opacity:0.12972975"
             sodipodi:type="arc" />
        </g>
        <g
           transform="matrix(-0.14101,-0.823995,0.88839,-0.130789,-792.5926,-1.542096)"
           id="g2834">
          <path
             transform="matrix(0.76293,-0.646481,0.646481,0.76293,-351.0851,-232.5912)"
             style="fill:fuchsia;fill-opacity:1;stroke:none;stroke-width:0.80000001;stroke-miterlimit:4;stroke-opacity:0.12972975"
             d="M -454.79776,362.23806 C -454.79776,366.04371 -470.49404,388.91821 -490.30293,388.91821 C -510.11182,388.91821 -528.56231,366.20839 -528.56231,362.40274 C -528.56231,358.59709 -511.07867,333.0664 -491.26978,333.0664 C -471.46089,333.0664 -454.79776,358.43241 -454.79776,362.23806 z "
             id="path2836"
             sodipodi:nodetypes="csssc" />
          <path
             sodipodi:type="arc"
             style="fill:white;fill-opacity:1;stroke:none;stroke-width:0.80000001;stroke-miterlimit:4;stroke-dasharray:none;stroke-opacity:0.12972975"
             id="path2838"
             sodipodi:cx="-513.88983"
             sodipodi:cy="410.13245"
             sodipodi:rx="33.410797"
             sodipodi:ry="11.712358"
             d="M -480.47903 410.13245 A 33.410797 11.712358 0 1 1  -547.30063,410.13245 A 33.410797 11.712358 0 1 1  -480.47903 410.13245 z"
             transform="matrix(0.527556,-0.588945,1.145378,0.738043,-691.6818,-244.5355)" />
        </g>
      </g>
      <g
         transform="matrix(0.841443,0,0,0.849155,379.6092,267.8778)"
         id="g7372">
        <g
           id="g7367"
           transform="translate(-2.039462,-40.78923)">
          <rect
             style="opacity:1;fill:#9c4840;fill-opacity:1;fill-rule:nonzero;stroke:none;stroke-width:0.80000001;stroke-miterlimit:4;stroke-dasharray:none;stroke-opacity:0.12972975"
             id="rect3741"
             width="128.48608"
             height="118.28877"
             x="-394.97455"
             y="670.74078" />
          <rect
             style="opacity:1;fill:#0fa;fill-opacity:1;fill-rule:nonzero;stroke:none;stroke-width:0.73070163;stroke-miterlimit:4;stroke-dasharray:none;stroke-opacity:0.12972975"
             id="rect3743"
             width="20.730978"
             height="128.52126"
             x="717.69043"
             y="262.74155"
             transform="matrix(-5.065646e-3,0.999987,-1,-7.962646e-5,0,0)" />
          <rect
             y="670.58838"
             x="-342.05853"
             height="118.5117"
             width="20.535677"
             id="rect3745"
             style="opacity:1;fill:#0fa;fill-opacity:1;fill-rule:nonzero;stroke:none;stroke-width:0.65893984;stroke-miterlimit:4;stroke-dasharray:none;stroke-opacity:0.12972975" />
        </g>
        <path
           sodipodi:nodetypes="csssc"
           id="path3749"
           d="M -281.3588,590.86085 C -279.15859,593.38588 -276.64318,617.38789 -290.15841,628.52494 C -303.67364,639.66199 -329.39154,634.96742 -331.59174,632.44239 C -333.79194,629.91735 -336.62352,603.14807 -323.1083,592.01102 C -309.59307,580.87397 -283.559,588.33581 -281.3588,590.86085 z "
           style="fill:#0fa;fill-opacity:1;fill-rule:nonzero;stroke:none;stroke-width:0.80000001;stroke-miterlimit:4;stroke-opacity:0.12972975" />
        <path
           transform="matrix(0.471788,-0.512188,1.0243,0.641854,-485.0758,84.43071)"
           d="M -480.47903 410.13245 A 33.410797 11.712358 0 1 1  -547.30063,410.13245 A 33.410797 11.712358 0 1 1  -480.47903 410.13245 z"
           sodipodi:ry="11.712358"
           sodipodi:rx="33.410797"
           sodipodi:cy="410.13245"
           sodipodi:cx="-513.88983"
           id="path3751"
           style="fill:white;fill-opacity:1;fill-rule:nonzero;stroke:none;stroke-width:0.80000001;stroke-miterlimit:4;stroke-dasharray:none;stroke-opacity:0.12972975"
           sodipodi:type="arc" />
        <path
           style="fill:#0fa;fill-opacity:1;fill-rule:nonzero;stroke:none;stroke-width:0.80000001;stroke-miterlimit:4;stroke-opacity:0.12972975"
           d="M -380.18424,593.48902 C -377.95177,591.08203 -353.82974,585.15468 -340.3219,595.93265 C -326.81406,606.71063 -327.55453,631.11301 -329.787,633.52001 C -332.01947,635.92701 -358.91849,642.56185 -372.42633,631.78387 C -385.93417,621.00589 -382.41671,595.89602 -380.18424,593.48902 z "
           id="path3755"
           sodipodi:nodetypes="csssc" />
        <path
           sodipodi:type="arc"
           style="fill:white;fill-opacity:1;fill-rule:nonzero;stroke:none;stroke-width:0.80000001;stroke-miterlimit:4;stroke-dasharray:none;stroke-opacity:0.12972975"
           id="path3757"
           sodipodi:cx="-513.88983"
           sodipodi:cy="410.13245"
           sodipodi:rx="33.410797"
           sodipodi:ry="11.712358"
           d="M -480.47903 410.13245 A 33.410797 11.712358 0 1 1  -547.30063,410.13245 A 33.410797 11.712358 0 1 1  -480.47903 410.13245 z"
           transform="matrix(-0.597604,-0.357676,0.49416,-1.040314,-865.3938,857.355)" />
      </g>
      <g
         transform="matrix(0.904866,0,0,0.838613,416.915,376.9398)"
         id="g3785">
        <rect
           style="fill:#1cd925;fill-opacity:1;stroke:none;stroke-width:0.80000001;stroke-miterlimit:4;stroke-dasharray:none;stroke-opacity:0.12972975"
           id="rect3763"
           width="128.48608"
           height="118.28877"
           x="-248.13341"
           y="523.89948" />
        <rect
           style="fill:#ff004e;fill-opacity:1;stroke:none;stroke-width:0.73070163;stroke-miterlimit:4;stroke-dasharray:none;stroke-opacity:0.12972975"
           id="rect3765"
           width="20.730978"
           height="128.52126"
           x="570.83557"
           y="116.64431"
           transform="matrix(-5.065646e-3,0.999987,-1,-7.962646e-5,0,0)" />
        <rect
           y="523.74707"
           x="-195.21739"
           height="118.5117"
           width="20.535677"
           id="rect3767"
           style="fill:#ff004e;fill-opacity:1;stroke:none;stroke-width:0.65893984;stroke-miterlimit:4;stroke-dasharray:none;stroke-opacity:0.12972975" />
        <path
           style="fill:#ff004e;fill-opacity:1;stroke:none;stroke-width:0.80000001;stroke-miterlimit:4;stroke-opacity:0.12972975"
           d="M -134.51769,482.76935 C -132.31748,485.29438 -129.80207,509.29639 -143.3173,520.43344 C -156.83253,531.57049 -182.55043,526.87592 -184.75063,524.35089 C -186.95083,521.82585 -189.78241,495.05657 -176.26719,483.91952 C -162.75196,472.78247 -136.71789,480.24431 -134.51769,482.76935 z "
           id="path3771"
           sodipodi:nodetypes="csssc" />
        <path
           sodipodi:type="arc"
           style="fill:white;fill-opacity:1;stroke:none;stroke-width:0.80000001;stroke-miterlimit:4;stroke-dasharray:none;stroke-opacity:0.12972975"
           id="path3773"
           sodipodi:cx="-513.88983"
           sodipodi:cy="410.13245"
           sodipodi:rx="33.410797"
           sodipodi:ry="11.712358"
           d="M -480.47903 410.13245 A 33.410797 11.712358 0 1 1  -547.30063,410.13245 A 33.410797 11.712358 0 1 1  -480.47903 410.13245 z"
           transform="matrix(0.471788,-0.512188,1.0243,0.641854,-338.2347,-23.66079)" />
        <path
           sodipodi:nodetypes="csssc"
           id="path3777"
           d="M -233.34304,485.39752 C -231.11057,482.99053 -206.98854,477.06318 -193.4807,487.84115 C -179.97286,498.61913 -180.71333,523.02151 -182.9458,525.42851 C -185.17827,527.83551 -212.07729,534.47035 -225.58513,523.69237 C -239.09297,512.91439 -235.57551,487.80452 -233.34304,485.39752 z "
           style="fill:#ff004e;fill-opacity:1;stroke:none;stroke-width:0.80000001;stroke-miterlimit:4;stroke-opacity:0.12972975" />
        <path
           transform="matrix(-0.597604,-0.357676,0.49416,-1.040314,-718.5526,749.2635)"
           d="M -480.47903 410.13245 A 33.410797 11.712358 0 1 1  -547.30063,410.13245 A 33.410797 11.712358 0 1 1  -480.47903 410.13245 z"
           sodipodi:ry="11.712358"
           sodipodi:rx="33.410797"
           sodipodi:cy="410.13245"
           sodipodi:cx="-513.88983"
           id="path3779"
           style="fill:white;fill-opacity:1;stroke:none;stroke-width:0.80000001;stroke-miterlimit:4;stroke-dasharray:none;stroke-opacity:0.12972975"
           sodipodi:type="arc" />
      </g>
      <g
         transform="matrix(0.825587,0,0,0.776542,768.2579,412.7497)"
         id="g1959">
        <rect
           y="542.17578"
           x="-401.09296"
           height="118.28877"
           width="128.48608"
           id="rect3785"
           style="fill:#408f9c;fill-opacity:1;stroke:none;stroke-width:0.80000001;stroke-miterlimit:4;stroke-dasharray:none;stroke-opacity:0.12972975" />
        <rect
           transform="matrix(-5.065646e-3,0.999987,-1,-7.962646e-5,0,0)"
           y="269.51083"
           x="589.20319"
           height="128.52126"
           width="20.730978"
           id="rect3787"
           style="fill:#e3dc31;fill-opacity:1;stroke:none;stroke-width:0.73070163;stroke-miterlimit:4;stroke-dasharray:none;stroke-opacity:0.12972975" />
        <rect
           style="fill:#e3dc31;fill-opacity:1;stroke:none;stroke-width:0.65893984;stroke-miterlimit:4;stroke-dasharray:none;stroke-opacity:0.12972975"
           id="rect3789"
           width="20.535677"
           height="118.5117"
           x="-348.17694"
           y="542.10229" />
        <path
           sodipodi:nodetypes="csssc"
           id="path3793"
           d="M -287.4772,501.12455 C -285.27699,503.64959 -282.76158,527.65159 -296.27681,538.78864 C -309.79204,549.92569 -335.50994,545.23112 -337.71014,542.70609 C -339.91034,540.18105 -342.74192,513.41177 -329.2267,502.27472 C -315.71147,491.13767 -289.6774,498.59951 -287.4772,501.12455 z "
           style="fill:#e3dc31;fill-opacity:1;stroke:none;stroke-width:0.80000001;stroke-miterlimit:4;stroke-opacity:0.12972975" />
        <path
           transform="matrix(0.471788,-0.512188,1.0243,0.641854,-491.1942,-5.305588)"
           d="M -480.47903 410.13245 A 33.410797 11.712358 0 1 1  -547.30063,410.13245 A 33.410797 11.712358 0 1 1  -480.47903 410.13245 z"
           sodipodi:ry="11.712358"
           sodipodi:rx="33.410797"
           sodipodi:cy="410.13245"
           sodipodi:cx="-513.88983"
           id="path3795"
           style="fill:white;fill-opacity:1;stroke:none;stroke-width:0.80000001;stroke-miterlimit:4;stroke-dasharray:none;stroke-opacity:0.12972975"
           sodipodi:type="arc" />
        <path
           style="fill:#e3dc31;fill-opacity:1;stroke:none;stroke-width:0.80000001;stroke-miterlimit:4;stroke-opacity:0.12972975"
           d="M -386.30254,503.75272 C -384.07007,501.34573 -359.94804,495.41838 -346.4402,506.19635 C -332.93236,516.97433 -333.67283,541.37671 -335.9053,543.78371 C -338.13777,546.19071 -365.03679,552.82555 -378.54463,542.04757 C -392.05247,531.26959 -388.53501,506.15972 -386.30254,503.75272 z "
           id="path3799"
           sodipodi:nodetypes="csssc" />
        <path
           sodipodi:type="arc"
           style="fill:white;fill-opacity:1;stroke:none;stroke-width:0.80000001;stroke-miterlimit:4;stroke-dasharray:none;stroke-opacity:0.12972975"
           id="path3801"
           sodipodi:cx="-513.88983"
           sodipodi:cy="410.13245"
           sodipodi:rx="33.410797"
           sodipodi:ry="11.712358"
           d="M -480.47903 410.13245 A 33.410797 11.712358 0 1 1  -547.30063,410.13245 A 33.410797 11.712358 0 1 1  -480.47903 410.13245 z"
           transform="matrix(-0.597604,-0.357676,0.49416,-1.040314,-871.5121,767.6187)" />
      </g>
      <path
         inkscape:transform-center-x="267.16947"
         transform="matrix(0.925361,0.379087,-0.379087,0.925361,808.7933,123.2393)"
         d="M -320.19546,283.48516 C -321.19735,285.22175 -358.43311,281.15418 -360.26439,281.97022 C -362.09568,282.78627 -383.96898,313.19359 -385.93018,312.77738 C -387.89138,312.36117 -395.52937,275.69091 -396.87137,274.20143 C -398.21337,272.71194 -433.89168,261.30558 -434.10189,259.31175 C -434.31209,257.31792 -401.79687,238.72203 -400.79499,236.98543 C -399.7931,235.24884 -399.97021,197.79199 -398.13892,196.97595 C -396.30764,196.1599 -368.57413,221.33727 -366.61293,221.75348 C -364.65173,222.16969 -329.08288,210.42645 -327.74088,211.91593 C -326.39888,213.40542 -341.77385,247.56178 -341.56365,249.55561 C -341.35344,251.54944 -319.19358,281.74856 -320.19546,283.48516 z "
         inkscape:randomized="0"
         inkscape:rounded="0.05"
         inkscape:flatsided="false"
         sodipodi:arg2="1.1515969"
         sodipodi:arg1="0.52327832"
         sodipodi:r2="31.833271"
         sodipodi:r1="61.217831"
         sodipodi:cy="252.89323"
         sodipodi:cx="-373.22147"
         sodipodi:sides="5"
         id="path3796"
         style="fill:#ecd454;fill-opacity:1;fill-rule:nonzero;stroke:none;stroke-width:0.80000001;stroke-miterlimit:4;stroke-dasharray:none;stroke-opacity:0.12972975"
         sodipodi:type="star" />
    </g>
  </g>
</svg>
